/* XPM */
static char *thought16[] = {
/* columns rows colors chars-per-pixel */
"16 16 126 2 ",
"   c #080B47",
".  c #0A0D48",
"X  c #0A0D49",
"o  c #0A0E49",
"O  c #080F4A",
"+  c #0A0E4A",
"@  c #0A0F4A",
"#  c #0A104A",
"$  c #0A104B",
"%  c #0A114B",
"&  c #0A114C",
"*  c #0A124C",
"=  c #0A124D",
"-  c #0B134E",
";  c #0B144E",
":  c #0B154F",
">  c #11144C",
",  c #11144E",
"<  c #061650",
"1  c #091751",
"2  c #0B1750",
"3  c #0B1751",
"4  c #0B1851",
"5  c #0A1852",
"6  c #0A1A53",
"7  c #0B1B54",
"8  c #0B1D54",
"9  c #0A1C55",
"0  c #0B1C55",
"q  c #0B1D55",
"w  c #0B1D56",
"e  c #0B1E56",
"r  c #0B1F58",
"t  c #0B2058",
"y  c #0B235A",
"u  c #0C225A",
"i  c #0E235A",
"p  c #0B245B",
"a  c #0B245C",
"s  c #0A275E",
"d  c #0C275E",
"f  c #0A285F",
"g  c #0D285F",
"h  c #0C295F",
"j  c #20265B",
"k  c #092960",
"l  c #092A60",
"z  c #0B2B61",
"x  c #0C2A60",
"c  c #0C2D63",
"v  c #0F2D63",
"b  c #0C2F65",
"n  c #162F63",
"m  c #152F64",
"M  c #162F64",
"N  c #1C2C61",
"B  c #0C356A",
"V  c #0C366A",
"C  c #0D366A",
"Z  c #0B376C",
"A  c #0D396D",
"S  c #173264",
"D  c #193064",
"F  c #183466",
"G  c #113C6D",
"H  c #0B3E71",
"J  c #2F3866",
"K  c #054577",
"L  c #0D4174",
"P  c #0D4274",
"I  c #0D4477",
"U  c #0D4677",
"Y  c #0B4779",
"T  c #0E4C7D",
"R  c #134271",
"E  c #114979",
"W  c #124D7D",
"Q  c #27426F",
"!  c #294776",
"~  c #254C7B",
"^  c #264D7A",
"/  c #234F7C",
"(  c #324675",
")  c #334873",
"_  c #28537E",
"`  c #48517B",
"'  c #0A5181",
"]  c #0E5181",
"[  c #0E5382",
"{  c #0E5483",
"}  c #0E5D8B",
"|  c #115B87",
" . c #1F5983",
".. c #345782",
"X. c #3A5C87",
"o. c #3E5D85",
"O. c #18628D",
"+. c #396289",
"@. c #3E6991",
"#. c #415C86",
"$. c #506C92",
"%. c #526F94",
"&. c #427598",
"*. c #4B779B",
"=. c #5D7898",
"-. c #607B9B",
";. c #627B9C",
":. c #697898",
">. c #687B9D",
",. c #71799A",
"<. c #5F82A2",
"1. c #6285A4",
"2. c #6889A5",
"3. c #648DAB",
"4. c #7783A0",
"5. c #7286A5",
"6. c #6291AC",
"7. c #8195B0",
"8. c #8896B0",
"9. c #859FB7",
"0. c #8C9CB4",
"q. c #94A3B9",
"w. c #9CABBF",
"e. c #A0A2B7",
"r. c #95B1C5",
"t. c None",
/* pixels */
"t.t.t.t.t.t.t.t.t.t.t.t.t.t.t.t.",
"t.t.t.t.t.o $ & % @ . t.t.t.t.t.",
"t.t.t.. & 2 7 w q 6 : $ t.t.t.t.",
"t.t.  = 0 y s k v m u 5 & t.t.t.",
"t.t.j N g ! $.X...;.>.( 1 # t.t.",
"t., ` :.5.^ +.9.1.R -.8.t ; t.t.",
"t.% 8 S w.@.K &.r.W / 0.n 5 + t.",
"t.= r l =.*.' O.6.3.<.o.h 7 # t.",
"t.= r c G E { } |  .2.7.f 7 # t.",
"t.% q x V P T [ ] Y _ q.M 5 + t.",
"t.+ 4 a b A L U I H C Q i ; t.t.",
"t.t.* q d b B Z ~ %.#.D 5 $ t.t.",
"t.t.X - 0 p h z F ) 4.,.O t.t.t.",
"t.t.t.. & 3 7 e 9 < J e.t.t.t.t.",
"t.t.t.t.t.o $ & & @ > t.t.t.t.t.",
"t.t.t.t.t.t.t.t.t.t.t.t.t.t.t.t."
};
