/* XPM */
static char *thought64[] = {
/* columns rows colors chars-per-pixel */
"64 64 188 2 ",
"   c #06083E",
".  c #0A0B46",
"X  c #0A0E49",
"o  c #070F4A",
"O  c #0B134D",
"+  c #091A4E",
"@  c #061146",
"#  c #0B1750",
"$  c #0B1B54",
"%  c #0B1F58",
"&  c #071953",
"*  c #171D55",
"=  c #0A2255",
"-  c #0B235B",
";  c #072E5D",
":  c #0C295E",
">  c #072557",
",  c #132B5D",
"<  c #1B2C5B",
"1  c #1E2452",
"2  c #0A315E",
"3  c #21245A",
"4  c #0C2C62",
"5  c #102C61",
"6  c #0B3265",
"7  c #0D3865",
"8  c #0C356A",
"9  c #0C3A6D",
"0  c #123464",
"q  c #183D67",
"w  c #123468",
"e  c #133B6C",
"r  c #1B3B6B",
"t  c #183968",
"y  c #0D3E71",
"u  c #113E71",
"i  c #252F61",
"p  c #293063",
"a  c #203865",
"s  c #2C3768",
"d  c #23396B",
"f  c #0B416E",
"g  c #1D416C",
"h  c #0D4375",
"j  c #0B4A75",
"k  c #0D4778",
"l  c #0D4B7C",
"z  c #174473",
"x  c #1C4274",
"c  c #134A73",
"v  c #1D4978",
"b  c #104C7D",
"n  c #0C527C",
"m  c #1C537E",
"M  c #11537A",
"N  c #25456D",
"B  c #2B406B",
"V  c #224575",
"C  c #234B75",
"Z  c #2C4A76",
"A  c #214B7A",
"S  c #2D4C7A",
"D  c #304776",
"F  c #344D75",
"G  c #304B79",
"H  c #3C4670",
"J  c #3C527E",
"K  c #37527B",
"L  c #4F4F74",
"P  c #404B78",
"I  c #4F5679",
"U  c #44587E",
"Y  c #0E5383",
"T  c #0E5987",
"R  c #0E5C8A",
"E  c #1B5583",
"W  c #1A5987",
"Q  c #125981",
"!  c #285683",
"~  c #2C5E83",
"^  c #385682",
"/  c #365B84",
"(  c #3D5C83",
")  c #315783",
"_  c #0F618E",
"`  c #0F6490",
"'  c #266588",
"]  c #2F6688",
"[  c #36658E",
"{  c #2E6791",
"}  c #3E6B92",
"|  c #3B749A",
" . c #3B7597",
".. c #435F84",
"X. c #535D84",
"o. c #585881",
"O. c #4C6085",
"+. c #4C658C",
"@. c #49688D",
"#. c #446688",
"$. c #596088",
"%. c #58658B",
"&. c #446F93",
"*. c #4B6C92",
"=. c #516E94",
"-. c #586E91",
";. c #4E7197",
":. c #42769B",
">. c #46779B",
",. c #547394",
"<. c #5B7291",
"1. c #5F7996",
"2. c #5F7699",
"3. c #57789A",
"4. c #637797",
"5. c #687696",
"6. c #657B9C",
"7. c #6D7D9D",
"8. c #737A9A",
"9. c #5A81A1",
"0. c #5688A6",
"q. c #6483A2",
"w. c #6C85A4",
"e. c #698BA6",
"r. c #768AA7",
"t. c #6E97AE",
"y. c #6391AC",
"u. c #7B91AD",
"i. c #7593AD",
"p. c #7D95B1",
"a. c #709AB4",
"s. c #7899B5",
"d. c #868EAA",
"f. c #8492AC",
"g. c #8699AF",
"h. c #9497AD",
"j. c #849AB4",
"k. c #8B9BB4",
"l. c #8696B1",
"z. c #979CB5",
"x. c #85A5BD",
"c. c #8EA2BB",
"v. c #95A0B7",
"b. c #94A5BB",
"n. c #9DA5BB",
"m. c #9DAABE",
"M. c #A0AABF",
"N. c #A0A5BC",
"B. c #89A8C0",
"V. c #9BACC1",
"C. c #93ABC1",
"Z. c #9FB3C6",
"A. c #97B4C9",
"S. c #9EB5C9",
"D. c #9FBBCE",
"F. c #96B1C5",
"G. c #A0ADC2",
"H. c #A1B1C5",
"J. c #A0B5C9",
"K. c #A1BACD",
"L. c #ACBCCC",
"P. c #ABB6C9",
"I. c #B5BECE",
"U. c #A1BED0",
"Y. c #AFC5D2",
"T. c #BBC5D2",
"R. c #B6C5D5",
"E. c #BFD3DF",
"W. c #C4CEDA",
"Q. c #C3CBD7",
"!. c #CBD4DE",
"~. c #D1D3DC",
"^. c #C5D4E0",
"/. c #CED5E0",
"(. c #CEDAE3",
"). c #D5D6E0",
"_. c #D2DAE4",
"`. c #D8DDE5",
"'. c #DBE1E7",
"]. c #E2E6EC",
"[. c #E2E9EE",
"{. c #ECEEF2",
"}. c #EDF1F5",
"|. c #F1F4F6",
" X c #F5F7F9",
".X c #F7F9FA",
"XX c #FEFEFE",
"oX c None",
/* pixels */
"oXoXoXoXoXoXoXoXoXoXoXoXoXoXoXoXoXoXoXoXoXoXoXoXoXoXoXoXoXoXoXoXoXoXoXoXoXoXoXoXoXoXoXoXoXoXoXoXoXoXoXoXoXoXoXoXoXoXoXoXoXoXoXoX",
"oXoXoXoXoXoXoXoXoXoXoXoXoXoXoXoXoXoXoXoXoXoXoXoXoXoXoXoXoXoXoXoXoXoXoXoXoXoXoXoXoXoXoXoXoXoXoXoXoXoXoXoXoXoXoXoXoXoXoXoXoXoXoXoX",
"oXoXoXoXoXoXoXoXoXoXoXoXoXoXoXoXoXoXoXoXoXoXoXoXoXoXoXoXoXoXoXoXoXoXoXoXoXoXoXoXoXoXoXoXoXoXoXoXoXoXoXoXoXoXoXoXoXoXoXoXoXoXoXoX",
"oXoXoXoXoXoXoXoXoXoXoXoXoXoXoXoXoXoXoXoXoXoXoXoXoXoXoXoXoXoXoXoXoXoXoXoXoXoXoXoXoXoXoXoXoXoXoXoXoXoXoXoXoXoXoXoXoXoXoXoXoXoXoXoX",
"oXoXoXoXoXoXoXoXoXoXoXoXoXoXoXoXoXoXoXoXoXoXoXoXoX. . . . . X . . . . . . . oXoXoXoXoXoXoXoXoXoXoXoXoXoXoXoXoXoXoXoXoXoXoXoXoXoX",
"oXoXoXoXoXoXoXoXoXoXoXoXoXoXoXoXoXoXoXoXoXoXX . . . X X X X X X X X X X X . . . . oXoXoXoXoXoXoXoXoXoXoXoXoXoXoXoXoXoXoXoXoXoXoX",
"oXoXoXoXoXoXoXoXoXoXoXoXoXoXoXoXoXoXoX. . X X X O X O O O O O O O O O X O X X X X X . . oXoXoXoXoXoXoXoXoXoXoXoXoXoXoXoXoXoXoXoX",
"oXoXoXoXoXoXoXoXoXoXoXoXoXoXoXoXoX. . . X X X X O O O O O O # O # # # O O O O O O X . X . oXoXoXoXoXoXoXoXoXoXoXoXoXoXoXoXoXoXoX",
"oXoXoXoXoXoXoXoXoXoXoXoXoXoXoXoX. . X X # X # # # # # # # & # & # # # $ & # # # X X X X X . . oXoXoXoXoXoXoXoXoXoXoXoXoXoXoXoXoX",
"oXoXoXoXoXoXoXoXoXoXoXoXoXoX. . X X # X # # # # # $ $ $ $ $ $ $ $ $ $ $ $ $ # # # # # # X X X . oXoXoXoXoXoXoXoXoXoXoXoXoXoXoXoX",
"oXoXoXoXoXoXoXoXoXoXoXoXoX. . X X X # # # # $ $ $ $ $ % % % % % - $ % $ $ $ $ $ $ # # # # X X X . . oXoXoXoXoXoXoXoXoXoXoXoXoXoX",
"oXoXoXoXoXoXoXoXoXoXoXoX. . X O # X # # # $ $ % % % - % - - - - - - - - % % % % $ # & # # # X X X . . oXoXoXoXoXoXoXoXoXoXoXoXoX",
"oXoXoXoXoXoXoXoXoXoXoX. . X O O # # # $ $ % % % - % - - - - - - - - - - - - - % % % $ $ # # # # O X . . oXoXoXoXoXoXoXoXoXoXoXoX",
"oXoXoXoXoXoXoXoXoXoX. X X O O # & $ $ % % % - % - 5 4 5 5 4 4 5 4 4 5 5 4 - - - - % % % $ $ # # O O X . . oXoXoXoXoXoXoXoXoXoXoX",
"oXoXoXoXoXoXoXoXoX. X X O O # # $ $ % % - - - 4 4 4 4 4 4 4 4 4 4 4 4 4 4 5 4 - 4 % % % % $ $ # # O O X X . oXoXoXoXoXoXoXoXoXoX",
"oXoXoXoXoXoXoXoX. . X O O # # $ $ % - % - 4 - 4 4 4 4 4 8 4 8 4 4 6 4 6 4 4 4 - - 4 - - % % $ $ # # O X X . oXoXoXoXoXoXoXoXoXoX",
"oXoXoXoXoXoXoXoX. X O O O # $ $ - - - - 4 4 4 4 4 6 6 6 6 8 8 8 8 8 6 ( r.2...Z r 5 5 - - - % $ $ # # O X X . oXoXoXoXoXoXoXoXoX",
"oXoXoXoXoXoXoX. X X O O # $ $ $ - - - 4 4 4 4 G ^ V e 8 8 8 8 8 8 8 / b.H.G.G.b.l.7.-.^ d - - % $ $ # O O X . . oXoXoXoXoXoXoXoX",
"oXoXoXoXoXoXoX. X O O O # $ - - - - 4 4 4 4 ^ k.m.c.u.q.&.) v u y z w.b.V.H.H.H.G.G.G.G.I.D - % $ $ # # O O X . oXoXoXoXoXoXoXoX",
"oXoXoXoXoXoX. X X s X.P s 5 - - - - 4 4 6 S k.J.H.H.J.J.V.V.c.s.3.y z C ( ,.w.j.C.V.G./..X7.> - - - $ # # O X X . oXoXoXoXoXoXoX",
"oXoXoXoXoXoX. X p d.N.n.z.f.7.%.J V w 6 6 x @.6.u.b.V.Z.S.S.S._.^.v 9 8 7 6 7 e D ( k..XXXI.4 - - % $ $ # O O X . oXoXoXoXoXoXoX",
"oXoXoXoXoX. X * 8.n.N.N.n.M.m.M.n.b.v.x 8 8 6 8 f C / ;.e.j.Q.XX|.*.y 9 8 7 7 7 6 ; ( |.XX].D - - - % $ # # O X X . oXoXoXoXoXoX",
"oXoXoXoXoX. X O p H $.8.f.z.m.M.V.W.|.;.8 8 7 7 7 9 7 f f c L.XXXXx.k k h h 9 8 7 7 t Q.XXXX6.- - - - $ $ # # X X . oXoXoXoXoXoX",
"oXoXoXoX. . O O @ @ + = < B U <.G..XXXc.8 y y f f h f f h f 0.XXXX^.M k k k k h y 7 ; f.XXXXP.4 - - - % $ # # O X . oXoXoXoXoXoX",
"oXoXoXoX. X X O O + + + = = = > <.XXXX_.v y h h h k k l k j K '.XX|.:.l l k k h h 9 6 [ |.XX].Z 4 - - % $ $ # O X X . oXoXoXoXoX",
"oXoXoXoX. X O O # $ = = = - = : d `.XX X;.y h k k l l Y n l j Y.XXXXx.l l l k h h 9 7 e Q.XXXX6.- - - - $ $ # O O X . oXoXoXoXoX",
"oXoXoXoX. X O # # $ % - - 4 4 4 ; m.XXXXb.h k k l l l Y Y Y j e.XXXX^.W Y l l k h h f 2 g.XXXXg.4 4 - - - $ # # O X . oXoXoXoXoX",
"oXoXoX. X X O # $ $ % - - 4 4 4 > <.XXXX(.b k l l l Y Y Y T n ] [.XX}.| l l l k k h h 6 U .XT.Z 4 4 - - % $ # # O X . oXoXoXoXoX",
"oXoXoX. . O O # $ $ - - - 5 4 w 2 N '.XX X>.k l Y Y Y Y T R T n Y.XX^.| | { W b j h h 8 g b.S 4 4 4 - - % $ # # O X . oXoXoXoXoX",
"oXoXoX. X X # # $ $ - - - 4 4 8 7 2 H.XXXXp.k l l Y Y T R R R l t.(.| a.D.A.B.a.9.} ! z 2 0 6 4 4 4 - - - $ $ # O X X . oXoXoXoX",
"oXoXoX. X O O # $ $ - - 4 4 4 6 8 ; 4.XX_.[ k l Y Y Y T R _ _ T '  .y.U.U.K.K.K.S.S.b.x.r.g 8 6 4 4 5 - - $ # # O O . . oXoXoXoX",
"oXoXoX. X X O # $ % - - 4 4 4 8 8 7 Z T.#.k l l l Y T R R _ ` _ n Q | 0.a.x.F.S.K.S.S.R.}.3.8 6 4 4 - - - $ $ # O O X . oXoXoXoX",
"oXoXoXX . O # # $ % - - 4 4 4 8 8 8 w V 8 k k Y Y Y Y R R _ ` ` R T T n n m ] &.9.i.Z.}.XXm.9 6 4 4 4 % % % $ # # X X . oXoXoXoX",
"oXoXoXX . O O # $ % - - 5 4 4 4 8 8 7 8 u k k k Y Y Y R R _ _ _ R _ M n j j j f f f 1. XXX_.x 8 6 4 4 - - $ # # # X X . oXoXoXoX",
"oXoXoXX . O O # $ $ % - - 4 8 8 8 9 8 y h k k Y Y Y Y R R R R _ R R T n n l j j f f v '.XX X,.4 4 4 - - % % # # # X X X oXoXoXoX",
"oXoXoX. X O O # $ $ % - : 4 4 4 8 8 y y y k h Y k Y Y Y R R R R _ T T T Y Y l j j f 7 b.XXXXb.4 4 4 4 - % $ $ # X X X oXoXoXoXoX",
"oXoXoXX X X O # $ % % - - 4 4 8 8 8 y y h h k k Y Y Y Y Y Y Y Y T T Y Y Y l l l k h 6 ,..XXX~.V 4 - - % % & # # O X . oXoXoXoXoX",
"oXoXoXoXX X O O # $ % % - 5 4 4 8 8 8 9 y h k k k k Y Y Y Y Y Y Y Y Y Y l l l k k h 7 N '.XX X+.4 4 4 - % $ # # O X . oXoXoXoXoX",
"oXoXoXoX. X O O # $ % % - : 4 4 6 8 9 9 y y u k k k k Y Y Y Y Y Y Y Y l l l k k h y 9 2 m.XXXXk.- 4 % % % $ & # O X . oXoXoXoXoX",
"oXoXoXoXX X X # # $ % % - : : 4 4 8 8 9 y y u k k k k k Y k Y k Y l b l k k k h h y 9 ; <.XX}.-.4 % % % $ $ # X X . . oXoXoXoXoX",
"oXoXoXoXX X X # # # $ % % - : 4 4 8 8 8 9 9 y y y k Y Y k Y Y Y k b k k y k y y y y 9 4 N ~.w.: - - - % $ # O O X X oXoXoXoXoXoX",
"oXoXoXoXoXX X X # # $ % - - : : 5 4 4 8 9 u y y 9 Y y y y y y Y k k k k Y y y y y y 8 8 : K , = 4 - % $ $ # O O X . oXoXoXoXoXoX",
"oXoXoXoXoXX X X O # $ $ % - - 5 4 4 4 8 8 9 9 9 y y y y k Y y k k k h y y y y 9 9 8 8 8 - > 4 4 - - - $ # # O X X . oXoXoXoXoXoX",
"oXoXoXoXoXoXX X O O # $ % % - - 4 4 4 8 8 8 9 9 y y y y y y y y y y h y y y 9 9 8 8 8 4 - 4 - - - % $ $ # O O X . oXoXoXoXoXoXoX",
"oXoXoXoXoXoXX X O O # $ $ % % - - 4 4 4 4 8 8 8 9 9 u 9 y y y y y y y y 8 8 8 8 8 8 4 4 4 4 4 % % % $ # # O X X . oXoXoXoXoXoXoX",
"oXoXoXoXoXoXoX. X O O # $ % % % - - 4 4 4 4 8 8 8 8 8 9 9 9 9 9 9 y 8 A ;.) V e 4 4 4 4 4 - - % $ $ $ # O X X X oXoXoXoXoXoXoXoX",
"oXoXoXoXoXoXoX. . X O # # $ % % - - 4 : 4 4 4 4 8 4 8 8 8 8 8 9 8 8 V u.Z.V.k.p.6.+.D d - - % % $ $ # # O X . . oXoXoXoXoXoXoXoX",
"oXoXoXoXoXoXoXoX. X X O # # $ $ % - - - 4 5 4 4 8 4 4 8 8 8 8 8 8 e 7.Z.G.G.G.G.G.V.b.k.d.d % $ $ # # O O X . oXoXoXoXoXoXoXoXoX",
"oXoXoXoXoXoXoXoX. . X O O # # $ $ - - - - - 5 4 4 4 4 4 4 4 6 6 6 0 S O.5.r.k.n.m.M.M.I.|.%.$ $ # # O X X . oXoXoXoXoXoXoXoXoXoX",
"oXoXoXoXoXoXoXoXoX. . X O O # # $ $ $ - - - - 5 - 4 4 4 4 4 4 4 4 ; : = = , a F X.5.n.|.XXn.$ # # O O X . . oXoXoXoXoXoXoXoXoXoX",
"oXoXoXoXoXoXoXoXoXoX. X X O O # # $ $ % - - - - - - 4 4 5 4 4 4 4 : = , = = $ = + + X. XXX`.i # O X X X . oXoXoXoXoXoXoXoXoXoXoX",
"oXoXoXoXoXoXoXoXoXoXoX. X X O O # # $ $ $ % % % - - - - 5 - - - - - - : - = = = = + < ~.XX.XX.X O X X . oXoXoXoXoXoXoXoXoXoXoXoX",
"oXoXoXoXoXoXoXoXoXoXoXoX. X X O O O # # $ $ $ $ % % - % - - - - - - - - - - $ $ $ $ @ h.XXXXz.O X X . oXoXoXoXoXoXoXoXoXoXoXoXoX",
"oXoXoXoXoXoXoXoXoXoXoXoXoX. . X X O O # # # $ $ $ % % % % % % % - $ - $ $ $ $ $ # # @ I .XXX).3 . . oXoXoXoXoXoXoXoXoXoXoXoXoXoX",
"oXoXoXoXoXoXoXoXoXoXoXoXoXoX. . X X X O # # # # & # $ $ $ $ $ $ $ $ # $ $ $ # # # O @ 1 ~.XX Xo.oXoXoXoXoXoXoXoXoXoXoXoXoXoXoXoX",
"oXoXoXoXoXoXoXoXoXoXoXoXoXoXoXoX. X X O X O O O # # # # # # $ $ # $ # # # # # + O O @ @ h.XXXXoXoXoXoXoXoXoXoXoXoXoXoXoXoXoXoXoX",
"oXoXoXoXoXoXoXoXoXoXoXoXoXoXoXoXoX. . . X X O O O O O O # O # O # # O O O O O O O X .   L oXoXoXoXoXoXoXoXoXoXoXoXoXoXoXoXoXoXoX",
"oXoXoXoXoXoXoXoXoXoXoXoXoXoXoXoXoXoXoX. . X X X O X O O O O O O O O O O O O X X X . . . oXoXoXoXoXoXoXoXoXoXoXoXoXoXoXoXoXoXoXoX",
"oXoXoXoXoXoXoXoXoXoXoXoXoXoXoXoXoXoXoXoXoXoX. . . X X X X X X O O X X X X . . . . oXoXoXoXoXoXoXoXoXoXoXoXoXoXoXoXoXoXoXoXoXoXoX",
"oXoXoXoXoXoXoXoXoXoXoXoXoXoXoXoXoXoXoXoXoXoXoXoXoX. . . . . . . . . . . . . oXoXoXoXoXoXoXoXoXoXoXoXoXoXoXoXoXoXoXoXoXoXoXoXoXoX",
"oXoXoXoXoXoXoXoXoXoXoXoXoXoXoXoXoXoXoXoXoXoXoXoXoXoXoXoXoXoXoXoXoXoXoXoXoXoXoXoXoXoXoXoXoXoXoXoXoXoXoXoXoXoXoXoXoXoXoXoXoXoXoXoX",
"oXoXoXoXoXoXoXoXoXoXoXoXoXoXoXoXoXoXoXoXoXoXoXoXoXoXoXoXoXoXoXoXoXoXoXoXoXoXoXoXoXoXoXoXoXoXoXoXoXoXoXoXoXoXoXoXoXoXoXoXoXoXoXoX",
"oXoXoXoXoXoXoXoXoXoXoXoXoXoXoXoXoXoXoXoXoXoXoXoXoXoXoXoXoXoXoXoXoXoXoXoXoXoXoXoXoXoXoXoXoXoXoXoXoXoXoXoXoXoXoXoXoXoXoXoXoXoXoXoX",
"oXoXoXoXoXoXoXoXoXoXoXoXoXoXoXoXoXoXoXoXoXoXoXoXoXoXoXoXoXoXoXoXoXoXoXoXoXoXoXoXoXoXoXoXoXoXoXoXoXoXoXoXoXoXoXoXoXoXoXoXoXoXoXoX"
};
