/* XPM */
static char *thought32[] = {
/* columns rows colors chars-per-pixel */
"32 32 129 2 ",
"   c #060845",
".  c #0A0B47",
"X  c #0A0D49",
"o  c #07164E",
"O  c #0A124D",
"+  c #10134D",
"@  c #0B1650",
"#  c #0B1B54",
"$  c #0B1F58",
"%  c #191E56",
"&  c #0A2154",
"*  c #0B235B",
"=  c #0B285E",
"-  c #1B2153",
";  c #11235A",
":  c #252F5F",
">  c #0C2C62",
",  c #1B2E63",
"<  c #073466",
"1  c #0C3166",
"2  c #0C3569",
"3  c #063D6C",
"4  c #0C3B6D",
"5  c #123166",
"6  c #103569",
"7  c #133A6C",
"8  c #19396C",
"9  c #0C3D70",
"0  c #233C6D",
"q  c #313A6B",
"w  c #0D416F",
"e  c #17406C",
"r  c #1F426E",
"t  c #0C4274",
"y  c #0A4877",
"u  c #0C4779",
"i  c #0D4B7C",
"p  c #174375",
"a  c #1D4273",
"s  c #1C4C78",
"d  c #0D507E",
"f  c #19537F",
"g  c #20416F",
"h  c #244575",
"j  c #294471",
"k  c #274A74",
"l  c #2A4F78",
"z  c #334A77",
"x  c #3D4A73",
"c  c #35577D",
"v  c #485177",
"b  c #43597F",
"n  c #0E5382",
"m  c #0E5887",
"M  c #0E5D8A",
"N  c #105781",
"B  c #175D86",
"V  c #2B5280",
"C  c #295D84",
"Z  c #375581",
"A  c #335983",
"S  c #0F618D",
"D  c #26688B",
"F  c #33638D",
"G  c #3F6A8D",
"H  c #396E91",
"J  c #4B6385",
"K  c #4B658C",
"L  c #496A8F",
"P  c #58688B",
"I  c #556A90",
"U  c #45759B",
"Y  c #4D7B9F",
"T  c #517195",
"R  c #5E7193",
"E  c #5D789B",
"W  c #62688D",
"Q  c #6D7094",
"!  c #617A97",
"~  c #667A9C",
"^  c #5C8CAA",
"/  c #6084A4",
"(  c #6C85A4",
")  c #6D89A5",
"_  c #648FAE",
"`  c #698AA9",
"'  c #7484A1",
"]  c #7886A3",
"[  c #7489A6",
"{  c #7B89A7",
"}  c #7697AE",
"|  c #7E92AE",
" . c #7FA5BD",
".. c #8E96AD",
"X. c #8398AE",
"o. c #8795B0",
"O. c #849BB5",
"+. c #8D9AB4",
"@. c #8F9FB8",
"#. c #979EB6",
"$. c #83A2BA",
"%. c #88A9BF",
"&. c #94A2B7",
"*. c #95A5BC",
"=. c #9BA8BE",
"-. c #96B0C5",
";. c #9AB0C4",
":. c #A7B5C5",
">. c #ABB5C7",
",. c #A5BCCD",
"<. c #ADBACC",
"1. c #BFBFCF",
"2. c #B6C0CE",
"3. c #B4C3D2",
"4. c #BCC3D1",
"5. c #BCCBD7",
"6. c #C2CAD7",
"7. c #CDCDD7",
"8. c #CBD7E1",
"9. c #D3DAE3",
"0. c #D9DEE6",
"q. c #E2E7EC",
"w. c #E9EAEF",
"e. c #E6EBF0",
"r. c #E9ECF0",
"t. c #EDF1F4",
"y. c #F3F4F6",
"u. c #F4F6F8",
"i. c None",
/* pixels */
"i.i.i.i.i.i.i.i.i.i.i.i.i.i.i.i.i.i.i.i.i.i.i.i.i.i.i.i.i.i.i.i.",
"i.i.i.i.i.i.i.i.i.i.i.i.i.i.i.i.i.i.i.i.i.i.i.i.i.i.i.i.i.i.i.i.",
"i.i.i.i.i.i.i.i.i.i.i.i.. . X X X X X . i.i.i.i.i.i.i.i.i.i.i.i.",
"i.i.i.i.i.i.i.i.i.. X X O O O O O O O X X X i.i.i.i.i.i.i.i.i.i.",
"i.i.i.i.i.i.i.. . X O @ @ @ # # # # @ @ O X X . i.i.i.i.i.i.i.i.",
"i.i.i.i.i.i.. X O @ # # $ $ $ * $ $ $ # # @ @ X X i.i.i.i.i.i.i.",
"i.i.i.i.i.. X O @ # $ $ * = = = = = * * * # # O O . i.i.i.i.i.i.",
"i.i.i.i.. X O # # * * = > > 1 > > 5 5 > * $ $ # @ X X i.i.i.i.i.",
"i.i.i.i.. O o # * = = 8 h 7 2 < < L | ( J z , $ # O X . i.i.i.i.",
"i.i.i.. % q , ; = = 8 ( *.O.` T l L ' O.*.<.o.= # # O . i.i.i.i.",
"i.i.i.+ W #.+.{ ~ Z 7 A T ) O.8.O.3 2 e h >.0.0 * # @ O X i.i.i.",
"i.i.. O : x P ' 6.<.4 2 2 w f 5.9.N t 9 < ! u.I * # # O X i.i.i.",
"i.i.X O O # & = &.e.A t y i y } y.H u u 4 l q.=.= * # O X i.i.i.",
"i.i.X O # * = = K u.` y i n n H r.-.n u t 2 :.*.> = # @ X X i.i.",
"i.i.X @ # * = 1 g 0.,.i d n M B -. .^ Y F s c h > * $ # O . i.i.",
"i.i.X @ # * = 1 1 X./ y n m M S D ^ -.-.-.;.( > > = # @ O X i.i.",
"i.i.. @ # $ > 5 2 8 9 u n m M S M n N C L 3.8.a > = $ # X . i.i.",
"i.i.X @ # $ > > 2 9 p n n m M M M m d u 3 ) u.L = = $ @ O . i.i.",
"i.i.X @ # * > > 2 9 u u n n N N N N d u t V e.+.= * # @ O . i.i.",
"i.i.. O # $ $ > 2 2 9 9 9 u n n n i i u 9 4 1.:.> $ # @ X i.i.i.",
"i.i.. O @ # * > 1 2 2 9 t u i i i t u 9 9 2 J z = $ # O X i.i.i.",
"i.i.i.X O # $ > > 1 2 9 9 9 9 t t 9 9 9 2 1 * > * # @ X . i.i.i.",
"i.i.i.. X # # $ * > 1 2 2 9 9 9 9 8 V 8 2 > > * # @ @ X i.i.i.i.",
"i.i.i.i.X O # # $ > > > 1 1 2 2 7 E ;.@.{ R z $ # @ X . i.i.i.i.",
"i.i.i.i.. X @ # $ $ = = > > 5 > 1 k b R ] 4.:.% @ X X i.i.i.i.i.",
"i.i.i.i.i.. X O @ $ $ $ * = = = = & & # $ ..r.q X X i.i.i.i.i.i.",
"i.i.i.i.i.i.. X O O @ $ $ $ $ $ & * * # O v u.Q   i.i.i.i.i.i.i.",
"i.i.i.i.i.i.i.. . O O @ @ # # # # # # O O - 7.1.i.i.i.i.i.i.i.i.",
"i.i.i.i.i.i.i.i.i.. X X O O O O O O O X X X i.i.i.i.i.i.i.i.i.i.",
"i.i.i.i.i.i.i.i.i.i.i.i.. X X X . . X . i.i.i.i.i.i.i.i.i.i.i.i.",
"i.i.i.i.i.i.i.i.i.i.i.i.i.i.i.i.i.i.i.i.i.i.i.i.i.i.i.i.i.i.i.i.",
"i.i.i.i.i.i.i.i.i.i.i.i.i.i.i.i.i.i.i.i.i.i.i.i.i.i.i.i.i.i.i.i."
};
